<?xml version="1.0" encoding="utf-8"?>
<!-- Generator: Adobe Illustrator 19.0.0, SVG Export Plug-In . SVG Version: 6.00 Build 0)  -->
<svg version="1.1" id="Layer_1" xmlns="http://www.w3.org/2000/svg" xmlns:xlink="http://www.w3.org/1999/xlink" x="0px" y="0px"
	 viewBox="-388 175 209 211" style="enable-background:new -388 175 209 211;" xml:space="preserve">
<style type="text/css">
	.st0{opacity:0.4;fill:#C1E8A7;}
	.st1{fill:#FFFFFF;}
	.st2{fill:none;stroke:#FFFFFF;stroke-width:0.5;stroke-miterlimit:10;}
	.st3{fill:#FFFFFF;stroke:#FFFFFF;stroke-width:0.5;stroke-miterlimit:10;}
	.st4{fill:#5C3466;}
	.st5{fill:#5C3466;stroke:#1E5748;stroke-width:0.5;stroke-miterlimit:10;}
</style>
<title>manyWaysToBank</title>
<circle class="st0" cx="-282.5" cy="282" r="99"/>
<g id="ARTWORK">
	<path class="st1" d="M-240.1,301h43.9c0.4,0,0.7,0.3,0.7,0.7v1.4c0,0.4-0.3,0.7-0.7,0.7h-43.9c-0.4,0-0.7-0.3-0.7-0.7v-1.4
		C-240.9,301.3-240.6,301-240.1,301z"/>
	<path class="st1" d="M-242.9,305.1h49.4c0.4,0,0.7,0.3,0.7,0.7v1.4c0,0.4-0.3,0.7-0.7,0.7h-49.4c-0.4,0-0.7-0.3-0.7-0.7v-1.4
		C-243.6,305.4-243.4,305.1-242.9,305.1z"/>
	<path class="st1" d="M-240.1,273.5h43.9c0.4,0,0.7,0.3,0.7,0.7v1.4c0,0.4-0.3,0.7-0.7,0.7h-43.9c-0.4,0-0.7-0.3-0.7-0.7v-1.4
		C-240.9,273.8-240.6,273.5-240.1,273.5z"/>
	<path class="st1" d="M-242.3,272.3h48.1c0.4,0,0.7-0.3,0.7-0.7c0-0.3-0.2-0.5-0.4-0.6l-24-11.3c-0.2-0.1-0.4-0.1-0.6,0l-24,11.3
		c-0.3,0.2-0.5,0.6-0.3,0.9C-242.6,272-242.4,272.3-242.3,272.3L-242.3,272.3z"/>
	<path class="st1" d="M-236.8,277.6h3.4c0.4,0,0.7,0.3,0.7,0.7V299c0,0.4-0.3,0.7-0.7,0.7h-3.4c-0.4,0-0.7-0.3-0.7-0.7v-20.6
		C-237.4,277.9-237.1,277.6-236.8,277.6z"/>
	<path class="st1" d="M-225.3,277.6h3.4c0.4,0,0.7,0.3,0.7,0.7V299c0,0.4-0.3,0.7-0.7,0.7h-3.4c-0.4,0-0.7-0.3-0.7-0.7v-20.6
		C-225.9,277.9-225.6,277.6-225.3,277.6z"/>
	<path class="st1" d="M-213.8,277.6h3.4c0.4,0,0.7,0.3,0.7,0.7V299c0,0.4-0.3,0.7-0.7,0.7h-3.4c-0.4,0-0.7-0.3-0.7-0.7v-20.6
		C-214.4,277.9-214.1,277.6-213.8,277.6z"/>
	<path class="st1" d="M-202.4,277.6h3.4c0.4,0,0.7,0.3,0.7,0.7V299c0,0.4-0.3,0.7-0.7,0.7h-3.4c-0.4,0-0.7-0.3-0.7-0.7v-20.6
		C-203.1,277.9-202.8,277.6-202.4,277.6z"/>
	<path class="st2" d="M-341.3,269.8h-13.1c-2.7,0-4.8,2.2-4.8,4.8v28.2c0,2.7,2.2,4.8,4.8,4.8h13.1c2.7,0,4.8-2.2,4.8-4.8v-28.2
		C-336.5,271.9-338.5,269.8-341.3,269.8z M-338,302.8c0,1.8-1.4,3.2-3.2,3.2l0,0h-13.1c-1.8,0-3.2-1.4-3.2-3.2l0,0v-28.2
		c0-1.8,1.4-3.2,3.2-3.2h13.1c1.8,0,3.2,1.4,3.2,3.2V302.8z"/>
	<path class="st1" d="M-354.8,273.8h13.9c0.3,0,0.5,0.2,0.5,0.5v23.5c0,0.3-0.2,0.5-0.5,0.5h-13.9c-0.3,0-0.5-0.2-0.5-0.5v-23.5
		C-355.4,274-355,273.8-354.8,273.8z"/>
	<circle class="st3" cx="-347.9" cy="302.1" r="1.6"/>
	<path class="st1" d="M-280.3,302.4c-0.7,0-1.6,0.7-2.5,0.8c-1.5,0.2-5.2,0.1-7.3,0.1c-2.1,0-5.8,0-7.3-0.1
		c-0.9-0.1-1.7-0.8-2.5-0.8c-8.7,0-23.7,0-32.4,0v1.5c-0.1,1.9,1.3,3.6,3.3,3.8c0.2,0,0.3,0,0.5,0h76.8c1.9,0.1,3.6-1.3,3.8-3.3
		c0-0.2,0-0.3,0-0.5v-1.5C-256.5,302.4-271.6,302.4-280.3,302.4z"/>
	<path class="st1" d="M-324,300.9h67.7c0,0,0-26.9,0-38.9c0.2-2.1-1.4-3.9-3.5-4c-0.2,0-0.4,0-0.6,0h-59.9c-1.9,0-3.9,1-3.9,3.7
		C-324,273.8-324,300.9-324,300.9z M-321,261.3c0.2-0.2,0.5-0.2,0.8-0.2h59.9c1,0,1.1,0.3,1.1,1c0,9.4,0,29,0,35.9h-61.7
		c0-7,0-26.8-0.1-36.2C-321,261.6-321,261.4-321,261.3L-321,261.3z"/>
	<polygon class="st1" points="-290.8,281.1 -286.1,285.9 -284.9,284.5 -289.4,279.8 -287.5,277.8 -295.3,275.1 -292.6,283.3 	"/>
</g>
<g id="ARTWORK_1_">
	<path class="st4" d="M-243.1,299h43.9c0.4,0,0.7,0.3,0.7,0.7v1.4c0,0.4-0.3,0.7-0.7,0.7h-43.9c-0.4,0-0.7-0.3-0.7-0.7v-1.4
		C-243.9,299.3-243.6,299-243.1,299z"/>
	<path class="st4" d="M-245.9,303.1h49.4c0.4,0,0.7,0.3,0.7,0.7v1.4c0,0.4-0.3,0.7-0.7,0.7h-49.4c-0.4,0-0.7-0.3-0.7-0.7v-1.4
		C-246.6,303.4-246.4,303.1-245.9,303.1z"/>
	<path class="st4" d="M-243.1,271.5h43.9c0.4,0,0.7,0.3,0.7,0.7v1.4c0,0.4-0.3,0.7-0.7,0.7h-43.9c-0.4,0-0.7-0.3-0.7-0.7v-1.4
		C-243.9,271.8-243.6,271.5-243.1,271.5z"/>
	<path class="st4" d="M-245.3,270.3h48.1c0.4,0,0.7-0.3,0.7-0.7c0-0.3-0.2-0.5-0.4-0.6l-24-11.3c-0.2-0.1-0.4-0.1-0.6,0l-24,11.3
		c-0.3,0.2-0.5,0.6-0.3,0.9C-245.6,270-245.4,270.3-245.3,270.3L-245.3,270.3z"/>
	<path class="st4" d="M-239.8,275.6h3.4c0.4,0,0.7,0.3,0.7,0.7V297c0,0.4-0.3,0.7-0.7,0.7h-3.4c-0.4,0-0.7-0.3-0.7-0.7v-20.6
		C-240.4,275.9-240.1,275.6-239.8,275.6z"/>
	<path class="st4" d="M-228.3,275.6h3.4c0.4,0,0.7,0.3,0.7,0.7V297c0,0.4-0.3,0.7-0.7,0.7h-3.4c-0.4,0-0.7-0.3-0.7-0.7v-20.6
		C-228.9,275.9-228.6,275.6-228.3,275.6z"/>
	<path class="st4" d="M-216.8,275.6h3.4c0.4,0,0.7,0.3,0.7,0.7V297c0,0.4-0.3,0.7-0.7,0.7h-3.4c-0.4,0-0.7-0.3-0.7-0.7v-20.6
		C-217.4,275.9-217.1,275.6-216.8,275.6z"/>
	<path class="st4" d="M-205.4,275.6h3.4c0.4,0,0.7,0.3,0.7,0.7V297c0,0.4-0.3,0.7-0.7,0.7h-3.4c-0.4,0-0.7-0.3-0.7-0.7v-20.6
		C-206.1,275.9-205.8,275.6-205.4,275.6z"/>
	<path class="st5" d="M-344.3,267.8h-13.1c-2.7,0-4.8,2.2-4.8,4.8v28.2c0,2.7,2.2,4.8,4.8,4.8h13.1c2.7,0,4.8-2.2,4.8-4.8v-28.2
		C-339.5,269.9-341.5,267.8-344.3,267.8z M-341,300.8c0,1.8-1.4,3.2-3.2,3.2l0,0h-13.1c-1.8,0-3.2-1.4-3.2-3.2l0,0v-28.2
		c0-1.8,1.4-3.2,3.2-3.2h13.1c1.8,0,3.2,1.4,3.2,3.2V300.8z"/>
	<path class="st4" d="M-357.8,271.8h13.9c0.3,0,0.5,0.2,0.5,0.5v23.5c0,0.3-0.2,0.5-0.5,0.5h-13.9c-0.3,0-0.5-0.2-0.5-0.5v-23.5
		C-358.4,272-358,271.8-357.8,271.8z"/>
	<circle class="st5" cx="-350.9" cy="300.1" r="1.6"/>
	<path class="st4" d="M-283.3,300.4c-0.7,0-1.6,0.7-2.5,0.8c-1.5,0.2-5.2,0.1-7.3,0.1c-2.1,0-5.8,0-7.3-0.1
		c-0.9-0.1-1.7-0.8-2.5-0.8c-8.7,0-23.7,0-32.4,0v1.5c-0.1,1.9,1.3,3.6,3.3,3.8c0.2,0,0.3,0,0.5,0h76.8c1.9,0.1,3.6-1.3,3.8-3.3
		c0-0.2,0-0.3,0-0.5v-1.5C-259.5,300.4-274.6,300.4-283.3,300.4z"/>
	<path class="st4" d="M-327,298.9h67.7c0,0,0-26.9,0-38.9c0.2-2.1-1.4-3.9-3.5-4c-0.2,0-0.4,0-0.6,0h-59.9c-1.9,0-3.9,1-3.9,3.7
		C-327,271.8-327,298.9-327,298.9z M-324,259.3c0.2-0.2,0.5-0.2,0.8-0.2h59.9c1,0,1.1,0.3,1.1,1c0,9.4,0,29,0,35.9h-61.7
		c0-7,0-26.8-0.1-36.2C-324,259.6-324,259.4-324,259.3L-324,259.3z"/>
	<polygon class="st4" points="-293.8,279.1 -289.1,283.9 -287.9,282.5 -292.4,277.8 -290.5,275.8 -298.3,273.1 -295.6,281.3 	"/>
</g>
</svg>
