<?xml version="1.0" encoding="utf-8"?>
<!-- Generator: Adobe Illustrator 19.0.0, SVG Export Plug-In . SVG Version: 6.00 Build 0)  -->
<svg version="1.1" id="Layer_1" xmlns="http://www.w3.org/2000/svg" xmlns:xlink="http://www.w3.org/1999/xlink" x="0px" y="0px"
	 viewBox="-345 220.5 120.5 117.3" style="enable-background:new -345 220.5 120.5 117.3;" xml:space="preserve">
<style type="text/css">
	.st0{opacity:0.4;fill:#C1E8A7;}
	.st1{fill:#FFFFFF;}
	.st2{fill:none;stroke:#FFFFFF;stroke-width:4;stroke-miterlimit:10;}
	.st3{fill:#5C3466;}
	.st4{fill:none;stroke:#5C3466;stroke-width:4;stroke-miterlimit:10;}
</style>
<title>openLaterLonger</title>
<circle class="st0" cx="-288.2" cy="281" r="55.5"/>
<g>
	<path class="st1" d="M-226.4,275.3c-0.5-0.4-1.1-0.5-1.7-0.3c-2.2,1.1-4.6,1.7-7.1,1.7c-8.6,0-15.5-6.9-15.5-15.5l0,0
		c0-2.5,0.6-4.9,1.7-7.1c0.3-0.6,0.2-1.3-0.3-1.7s-1.1-0.5-1.7-0.3c-6.1,3.2-10,9.6-10,16.6c0,10.2,8.2,18.4,18.4,18.4
		c6.9,0,13.3-3.9,16.4-10.1C-225.8,276.5-225.9,275.8-226.4,275.3z"/>
	<path class="st1" d="M-286,261.1c1.3,0,2.3-1,2.3-2.3c0-1.3-1-2.3-2.3-2.3s-2.3,1-2.3,2.3l0,0C-288.4,260.1-287.3,261.1-286,261.1z
		 M-286,309.5c1.3,0,2.3-1,2.3-2.3s-1-2.3-2.3-2.3s-2.3,1-2.3,2.3l0,0C-288.4,308.4-287.3,309.5-286,309.5L-286,309.5L-286,309.5z
		 M-264.3,283c0,1.3,1,2.3,2.3,2.3s2.3-1,2.3-2.3s-1-2.3-2.3-2.3l0,0C-263.3,280.7-264.3,281.7-264.3,283z M-312.7,283
		c0,1.3,1,2.3,2.3,2.3s2.3-1,2.3-2.3s-1-2.3-2.3-2.3l0,0C-311.6,280.7-312.7,281.7-312.7,283z M-296.9,264c1.1-0.6,1.5-2.1,0.9-3.2
		s-2.1-1.5-3.2-0.9s-1.5,2.1-0.9,3.2C-299.5,264.3-298,264.6-296.9,264L-296.9,264z M-272.7,305.9c1.1-0.6,1.5-2.1,0.9-3.2
		s-2.1-1.5-3.2-0.9s-1.5,2.1-0.9,3.2S-273.9,306.5-272.7,305.9L-272.7,305.9z M-305.1,272c0.6-1.1,0.3-2.6-0.9-3.2
		c-1.1-0.6-2.6-0.3-3.2,0.9c-0.6,1.1-0.3,2.5,0.9,3.2C-307.2,273.5-305.7,273.1-305.1,272L-305.1,272z M-263.2,296.2
		c0.6-1.1,0.3-2.6-0.9-3.2s-2.6-0.3-3.2,0.9c-0.6,1.1-0.3,2.5,0.9,3.2C-265.3,297.7-263.8,297.3-263.2,296.2L-263.2,296.2z
		 M-271.9,263.2c0.6-1.1,0.3-2.6-0.9-3.2s-2.6-0.3-3.2,0.9c-0.6,1.1-0.3,2.5,0.9,3.2C-274,264.7-272.5,264.3-271.9,263.2
		L-271.9,263.2z M-296.1,305.1c0.6-1.1,0.3-2.6-0.9-3.2c-1.1-0.6-2.6-0.3-3.2,0.9c-0.6,1.1-0.3,2.5,0.9,3.2
		C-298.2,306.6-296.7,306.2-296.1,305.1L-296.1,305.1z M-264.1,272.9c1.1-0.6,1.5-2.1,0.9-3.2s-2.1-1.5-3.2-0.9s-1.5,2.1-0.9,3.2
		C-266.6,273.2-265.2,273.6-264.1,272.9L-264.1,272.9L-264.1,272.9z M-305.9,297.1c1.1-0.6,1.5-2.1,0.9-3.2s-2.1-1.5-3.2-0.9
		s-1.5,2.1-0.9,3.2C-308.5,297.3-307,297.7-305.9,297.1L-305.9,297.1z M-271.9,289.7l-12.1-7.3l7.9-11.4c0.6-0.8,0.4-1.9-0.4-2.4
		c-0.8-0.6-1.9-0.4-2.4,0.4l0,0l-9,12.9l0,0l0,0c0,0.1-0.1,0.2-0.1,0.3c0,0.1-0.1,0.2-0.1,0.3c0,0.1,0,0.2,0,0.3
		c0,0.2,0,0.4,0.1,0.6c0,0.1,0.1,0.2,0.1,0.3c0.1,0.1,0.2,0.2,0.2,0.3c0.1,0.1,0.1,0.1,0.2,0.2h0.1l0,0l13.7,8.3
		c0.8,0.5,1.9,0.2,2.4-0.6c0.5-0.8,0.2-1.9-0.6-2.4L-271.9,289.7z"/>
	<circle class="st2" cx="-286.2" cy="283" r="32.9"/>
</g>
<g>
	<path class="st3" d="M-228.4,273.3c-0.5-0.4-1.1-0.5-1.7-0.3c-2.2,1.1-4.6,1.7-7.1,1.7c-8.6,0-15.5-6.9-15.5-15.5l0,0
		c0-2.5,0.6-4.9,1.7-7.1c0.3-0.6,0.2-1.3-0.3-1.7s-1.1-0.5-1.7-0.3c-6.1,3.2-10,9.6-10,16.6c0,10.2,8.2,18.4,18.4,18.4
		c6.9,0,13.3-3.9,16.4-10.1C-227.8,274.5-227.9,273.8-228.4,273.3z"/>
	<path class="st3" d="M-288,259.1c1.3,0,2.3-1,2.3-2.3c0-1.3-1-2.3-2.3-2.3s-2.3,1-2.3,2.3l0,0C-290.4,258.1-289.3,259.1-288,259.1z
		 M-288,307.5c1.3,0,2.3-1,2.3-2.3s-1-2.3-2.3-2.3s-2.3,1-2.3,2.3l0,0C-290.4,306.4-289.3,307.5-288,307.5L-288,307.5L-288,307.5z
		 M-266.3,281c0,1.3,1,2.3,2.3,2.3s2.3-1,2.3-2.3s-1-2.3-2.3-2.3l0,0C-265.3,278.7-266.3,279.7-266.3,281z M-314.7,281
		c0,1.3,1,2.3,2.3,2.3s2.3-1,2.3-2.3s-1-2.3-2.3-2.3l0,0C-313.6,278.7-314.7,279.7-314.7,281z M-298.9,262c1.1-0.6,1.5-2.1,0.9-3.2
		s-2.1-1.5-3.2-0.9s-1.5,2.1-0.9,3.2C-301.5,262.3-300,262.6-298.9,262L-298.9,262z M-274.7,303.9c1.1-0.6,1.5-2.1,0.9-3.2
		s-2.1-1.5-3.2-0.9s-1.5,2.1-0.9,3.2S-275.9,304.5-274.7,303.9L-274.7,303.9z M-307.1,270c0.6-1.1,0.3-2.6-0.9-3.2
		c-1.1-0.6-2.6-0.3-3.2,0.9c-0.6,1.1-0.3,2.5,0.9,3.2C-309.2,271.5-307.7,271.1-307.1,270L-307.1,270z M-265.2,294.2
		c0.6-1.1,0.3-2.6-0.9-3.2s-2.6-0.3-3.2,0.9c-0.6,1.1-0.3,2.5,0.9,3.2C-267.3,295.7-265.8,295.3-265.2,294.2L-265.2,294.2z
		 M-273.9,261.2c0.6-1.1,0.3-2.6-0.9-3.2s-2.6-0.3-3.2,0.9c-0.6,1.1-0.3,2.5,0.9,3.2C-276,262.7-274.5,262.3-273.9,261.2
		L-273.9,261.2z M-298.1,303.1c0.6-1.1,0.3-2.6-0.9-3.2c-1.1-0.6-2.6-0.3-3.2,0.9c-0.6,1.1-0.3,2.5,0.9,3.2
		C-300.2,304.6-298.7,304.2-298.1,303.1L-298.1,303.1z M-266.1,270.9c1.1-0.6,1.5-2.1,0.9-3.2s-2.1-1.5-3.2-0.9s-1.5,2.1-0.9,3.2
		C-268.6,271.2-267.2,271.6-266.1,270.9L-266.1,270.9L-266.1,270.9z M-307.9,295.1c1.1-0.6,1.5-2.1,0.9-3.2s-2.1-1.5-3.2-0.9
		s-1.5,2.1-0.9,3.2C-310.5,295.3-309,295.7-307.9,295.1L-307.9,295.1z M-273.9,287.7l-12.1-7.3l7.9-11.4c0.6-0.8,0.4-1.9-0.4-2.4
		c-0.8-0.6-1.9-0.4-2.4,0.4l0,0l-9,12.9l0,0l0,0c0,0.1-0.1,0.2-0.1,0.3c0,0.1-0.1,0.2-0.1,0.3c0,0.1,0,0.2,0,0.3
		c0,0.2,0,0.4,0.1,0.6c0,0.1,0.1,0.2,0.1,0.3c0.1,0.1,0.2,0.2,0.2,0.3c0.1,0.1,0.1,0.1,0.2,0.2h0.1l0,0l13.7,8.3
		c0.8,0.5,1.9,0.2,2.4-0.6c0.5-0.8,0.2-1.9-0.6-2.4L-273.9,287.7z"/>
	<circle class="st4" cx="-288.2" cy="281" r="32.9"/>
</g>
</svg>
