<svg id="Flat" height="512" viewBox="0 0 512 512" width="512" xmlns="http://www.w3.org/2000/svg"><path d="m256 24 232 64v64h-464v-64z" fill="#3ea7ff"/><path d="m488 472v16h-464v-16a15.99552 15.99552 0 0 1 16-16h432a15.73428 15.73428 0 0 1 6.58008 1.42 15.973 15.973 0 0 1 9.41992 14.58z" fill="#3ea7ff"/><path d="m48 152h416v32h-416z" fill="#3ea7ff"/><circle cx="256" cy="88" fill="#2b7cd4" r="32"/><path d="m312 80h32v16h-32z" fill="#2b7cd4"/><path d="m168 80h32v16h-32z" fill="#2b7cd4"/><path d="m48 112h152v16h-152z" fill="#2b7cd4"/><path d="m312 112h152v16h-152z" fill="#2b7cd4"/><path d="m48 424h64a0 0 0 0 1 0 0v16a16 16 0 0 1 -16 16h-32a16 16 0 0 1 -16-16v-16a0 0 0 0 1 0 0z" fill="#3ea7ff" transform="matrix(-1 0 0 -1 160 880)"/><path d="m72 424h64a0 0 0 0 1 0 0v16a16 16 0 0 1 -16 16h-32a16 16 0 0 1 -16-16v-16a0 0 0 0 1 0 0z" fill="#2b7cd4" transform="matrix(-1 0 0 -1 208 880)"/><path d="m80 424h64a0 0 0 0 1 0 0v16a16 16 0 0 1 -16 16h-32a16 16 0 0 1 -16-16v-16a0 0 0 0 1 0 0z" fill="#3ea7ff" transform="matrix(-1 0 0 -1 224 880)"/><path d="m104 424h64a0 0 0 0 1 0 0v16a16 16 0 0 1 -16 16h-32a16 16 0 0 1 -16-16v-16a0 0 0 0 1 0 0z" fill="#2b7cd4" transform="matrix(-1 0 0 -1 272 880)"/><path d="m112 424h64a0 0 0 0 1 0 0v16a16 16 0 0 1 -16 16h-32a16 16 0 0 1 -16-16v-16a0 0 0 0 1 0 0z" fill="#3ea7ff" transform="matrix(-1 0 0 -1 288 880)"/><path d="m416 424h32a16 16 0 0 1 16 16v16a0 0 0 0 1 0 0h-64a0 0 0 0 1 0 0v-16a16 16 0 0 1 16-16z" fill="#3ea7ff"/><path d="m392 424h32a16 16 0 0 1 16 16v16a0 0 0 0 1 0 0h-64a0 0 0 0 1 0 0v-16a16 16 0 0 1 16-16z" fill="#2b7cd4"/><path d="m384 424h32a16 16 0 0 1 16 16v16a0 0 0 0 1 0 0h-64a0 0 0 0 1 0 0v-16a16 16 0 0 1 16-16z" fill="#3ea7ff"/><path d="m360 424h32a16 16 0 0 1 16 16v16a0 0 0 0 1 0 0h-64a0 0 0 0 1 0 0v-16a16 16 0 0 1 16-16z" fill="#2b7cd4"/><path d="m352 424h32a16 16 0 0 1 16 16v16a0 0 0 0 1 0 0h-64a0 0 0 0 1 0 0v-16a16 16 0 0 1 16-16z" fill="#3ea7ff"/><path d="m64 184h32a16 16 0 0 1 16 16v16a0 0 0 0 1 0 0h-64a0 0 0 0 1 0 0v-16a16 16 0 0 1 16-16z" fill="#719600" transform="matrix(-1 0 0 -1 160 400)"/><path d="m128 184h32a16 16 0 0 1 16 16v16a0 0 0 0 1 0 0h-64a0 0 0 0 1 0 0v-16a16 16 0 0 1 16-16z" fill="#3ea7ff" transform="matrix(-1 0 0 -1 288 400)"/><path d="m48 184h64a0 0 0 0 1 0 0v16a16 16 0 0 1 -16 16h-32a16 16 0 0 1 -16-16v-16a0 0 0 0 1 0 0z" fill="#3ea7ff"/><path d="m72 184h64a0 0 0 0 1 0 0v16a16 16 0 0 1 -16 16h-32a16 16 0 0 1 -16-16v-16a0 0 0 0 1 0 0z" fill="#2b7cd4"/><path d="m80 184h64a0 0 0 0 1 0 0v16a16 16 0 0 1 -16 16h-32a16 16 0 0 1 -16-16v-16a0 0 0 0 1 0 0z" fill="#3ea7ff"/><path d="m104 184h64a0 0 0 0 1 0 0v16a16 16 0 0 1 -16 16h-32a16 16 0 0 1 -16-16v-16a0 0 0 0 1 0 0z" fill="#2b7cd4"/><path d="m112 184h64a0 0 0 0 1 0 0v16a16 16 0 0 1 -16 16h-32a16 16 0 0 1 -16-16v-16a0 0 0 0 1 0 0z" fill="#3ea7ff"/><path d="m400 184h64a0 0 0 0 1 0 0v16a16 16 0 0 1 -16 16h-32a16 16 0 0 1 -16-16v-16a0 0 0 0 1 0 0z" fill="#3ea7ff"/><path d="m376 184h64a0 0 0 0 1 0 0v16a16 16 0 0 1 -16 16h-32a16 16 0 0 1 -16-16v-16a0 0 0 0 1 0 0z" fill="#2b7cd4"/><path d="m368 184h64a0 0 0 0 1 0 0v16a16 16 0 0 1 -16 16h-32a16 16 0 0 1 -16-16v-16a0 0 0 0 1 0 0z" fill="#3ea7ff"/><path d="m344 184h64a0 0 0 0 1 0 0v16a16 16 0 0 1 -16 16h-32a16 16 0 0 1 -16-16v-16a0 0 0 0 1 0 0z" fill="#2b7cd4"/><path d="m336 184h64a0 0 0 0 1 0 0v16a16 16 0 0 1 -16 16h-32a16 16 0 0 1 -16-16v-16a0 0 0 0 1 0 0z" fill="#3ea7ff"/><path d="m64 216h32v208h-32z" fill="#3ea7ff"/><path d="m96 216h32v208h-32z" fill="#3ea7ff"/><path d="m128 216h32v208h-32z" fill="#3ea7ff"/><path d="m160 224v-8h-96v208h96v-8h-24v-192zm-64 192h-24v-192h24zm32 0h-24v-192h24z" fill="#2b7cd4"/><path d="m352 216h32v208h-32z" fill="#3ea7ff"/><path d="m384 216h32v208h-32z" fill="#3ea7ff"/><path d="m416 216h32v208h-32z" fill="#3ea7ff"/><g fill="#2b7cd4"><path d="m176 184h-128v8h128"/><path d="m464 184h-128v8h128"/><path d="m48 152h416v8h-416z"/><path d="m352 416v8h96v-208h-96v8h24v192zm64-192h24v192h-24zm-32 0h24v192h-24z"/><path d="m48 448h128v8h-128z"/><path d="m336 448h128v8h-128z"/><path d="m488 472v16h-464v-8h456v-16a15.76868 15.76868 0 0 0 -1.41992-6.58 15.973 15.973 0 0 1 9.41992 14.58z"/></g><path d="m368 456h112v40h-112z" fill="#808080"/><path d="m304 152h128v240h-128z" fill="#a0cc00"/><path d="m384 152a48 48 0 0 0 48 48v-48z" fill="#85b200"/><path d="m304 200a48 48 0 0 0 48-48h-48z" fill="#85b200"/><path d="m352 392a48 48 0 0 0 -48-48v48z" fill="#85b200"/><path d="m432 344a48 48 0 0 0 -48 48h48z" fill="#85b200"/><circle cx="368" cy="272" fill="#85b200" r="32"/><path d="m400 376v-24a16 16 0 0 0 -16-16 16 16 0 0 0 -16 16v24.89167a64 64 0 0 0 6.75666 28.62167l25.24334 50.48666h64l21.69747-108.48733a36.93029 36.93029 0 0 0 -2.46581-22.24143l-17.48435-39.33978a36.93025 36.93025 0 0 0 -33.74731-21.93146v128h-16a16 16 0 0 1 -16-16z" fill="#ffc7cc"/></svg>