<svg xmlns="http://www.w3.org/2000/svg" width="47" height="39" viewBox="0 0 47 39"><path fill="#FFF" d="M47 4.617a18.896 18.896 0 0 1-5.537 1.55A9.83 9.83 0 0 0 45.703.72a19.04 19.04 0 0 1-6.127 2.386A9.528 9.528 0 0 0 32.54 0C27.217 0 22.9 4.408 22.9 9.845c0 .772.083 1.521.248 2.242-8.014-.41-15.117-4.326-19.876-10.29a9.991 9.991 0 0 0-1.305 4.955 9.898 9.898 0 0 0 4.29 8.194 9.497 9.497 0 0 1-4.37-1.228v.121c0 4.772 3.324 8.753 7.738 9.654a9.231 9.231 0 0 1-2.54.346c-.621 0-1.228-.059-1.816-.174 1.228 3.91 4.786 6.758 9.007 6.834a19.09 19.09 0 0 1-11.975 4.216A19.38 19.38 0 0 1 0 34.58C4.268 37.37 9.338 39 14.781 39c17.739 0 27.435-15 27.435-28.011 0-.428-.008-.857-.024-1.276A19.74 19.74 0 0 0 47 4.617" opacity=".726"/></svg>