<svg xmlns="http://www.w3.org/2000/svg" width="63" height="50" viewBox="0 0 63 50"><path fill="#9B9B9B" fill-opacity=".574" d="M44 24.965V19.04c-3.028-1.08-4.936-1.38-5.901-3.704-.966-2.33.181-3.913 1.553-6.794l-4.188-4.19c-2.86 1.358-4.46 2.52-6.797 1.552-2.33-.968-2.632-2.891-3.703-5.904h-5.928c-1.066 2.997-1.371 4.936-3.703 5.902h-.003C13 6.87 11.422 5.72 8.536 4.348L4.351 8.54c1.364 2.873 2.518 4.462 1.553 6.795-.97 2.332-2.907 2.637-5.904 3.704v5.924c2.99 1.067 4.936 1.375 5.901 3.704.973 2.35-.21 3.971-1.553 6.795l4.188 4.19c2.865-1.358 4.462-2.52 6.794-1.553h.003c2.33.966 2.635 2.894 3.703 5.902h5.925c1.066-2.997 1.372-4.93 3.72-5.907h.002c2.314-.963 3.885.184 6.778 1.559l4.188-4.191c-1.359-2.865-2.52-4.46-1.555-6.795.968-2.327 2.914-2.637 5.906-3.701zM21 28c-3.864 0-7-3.134-7-7s3.136-7 7-7 7 3.134 7 7-3.136 7-7 7zm42 12.914v-2.828c-1.444-.514-2.355-.659-2.817-1.767-.462-1.113.087-1.866.74-3.244l-2-2.001c-1.365.651-2.129 1.202-3.242.743-1.112-.46-1.257-1.378-1.769-2.817h-2.824c-.51 1.43-.657 2.355-1.77 2.817-1.112.462-1.866-.087-3.241-.743l-2 2c.65 1.374 1.202 2.132.74 3.245-.462 1.114-1.386 1.258-2.817 1.767v2.828c1.428.506 2.355.656 2.817 1.767.464 1.12-.1 1.895-.74 3.244l2 2.001c1.367-.651 2.131-1.202 3.242-.743 1.112.46 1.257 1.38 1.769 2.817h2.824c.51-1.43.657-2.355 1.775-2.82h.002c1.105-.459 1.854.09 3.234.746l2-2c-.648-1.368-1.202-2.132-.74-3.243.462-1.11 1.389-1.263 2.817-1.77zM52.5 43a3.5 3.5 0 1 1 .001-7.001A3.5 3.5 0 0 1 52.5 43z" opacity=".375"/></svg>