<svg xmlns="http://www.w3.org/2000/svg" width="43" height="57" viewBox="0 0 43 57"><path fill="#FFBA00" d="M19.177 9.384l-.01-.072.102-.13.11-.028.224-.154c.064.012.218.14.166.218l-.12.15c-.028.25-.278.248-.466.33-.128.056-.258-.026-.132-.154l.126-.16zM24.617 14c-.1 0-.666.052-.614.152.32.524.724-.138.614-.152zM3.313 33A21.44 21.44 0 0 1 0 21.545C0 9.645 9.625 0 21.5 0 33.373 0 43 9.645 43 21.545c0 4.216-1.225 8.132-3.313 11.455l-2.623-2.629a17.856 17.856 0 0 0 2.329-8.826c0-1.858-.318-3.734-.64-4.725a1.095 1.095 0 0 0-.645-.68c-.46-.18-2.394 1.07-2.688.455l-1.025.014c-.215-.12-.812-.924-1.084-.826-.552.201.848 1.73 1.232 1.932.361-.273 1.527-.833 1.778-.067.48 1.443-1.321 3.023-2.241 3.859-1.376 1.247-1.118-.804-2.055-1.53-.494-.378-.487-1.185-.986-1.463-.222-.126-1.242-1.3-1.233-1.46l-.028.3c-.168.126-.528-.482-.567-.578 0 .53.86 1.372 1.145 1.798.485.728.745 1.786 1.34 2.382.32.319 1.538 1.642 1.856 1.611l1.632-.775c.795.189-.796 2.848-1.983 4.709L21.5 14.773l-7.418 7.435a4.92 4.92 0 0 1 .206-1.711c.07-.34-.203-.972-.084-1.236.285-.632.86-1.343 1.364-1.819.285-.27.648-.201.98-.41.513-.325.52-.993 1.025-1.402.716-.584 1.696-.572 2.63-.697.5-.067 2.393-.476 2.692-.108 0 .07.344 1.087-.033 1.03.774.043 1.88 1.345 2.616 1.039.377-.158.24-1.322 1.017-.76.468.338 2.573.49 3.01.125.27-.222.42-1.668.093-1.833.208.208-1.096.222-1.216.177-.215-.08-.415.203-.762.045.208.1-1.156-.636-.39-1.197l-.964.194c-.24.194.112.323-.23.493-.54.276-.948-.943-1.15-1.08-.209-.136-1.817-1.268-1.38-.53l1.415 1.41c-.07.047-.37-.513-.37-.106.095-.242.035 1.041-.19.622l.013-.48c0-.152-.409-.302-.49-.405-.224-.28-.82-.893-1.142-1.042-.088-.043-1.369.156-1.476.199l-.32.555c-.265.1-.514.228-.75.386l-.282.632c-.124.11-1.371.524-1.379.538.053-.134-.874-.306-.812-.576.07-.297.382-1.221.301-1.559-.086-.354 1.926.51 2.055-.424.052-.402.08-.873-.562-.943.124.015 1.247-.443 1.434-.649.26-.301.862-.794 1.294-.794.51 0 .4-.742.633-1.104.234.093-.126.675.156.91-.017-.185.798.1.876.06.19-.101 1.226-.044 1.066-.532-.18-.498.093-.35.325-.452-.036.014.44-.814.645-.812-.184-.158-.705.199-.913.184-.547-.045-.315-.933-.107-1.194.157-.208-.437-.46-.442-.065-.01.592-.56 1.125-.433 1.91.194 1.186-1.318-.287-1.447-.203-.502.304-.91-.385-.652-.797.267-.421.905-.4 1.17-.852.186-.319.401-.692.69-.934.958-.807 1.224-.16 2.18-.074.933.086.314.223.188.584-.124.342.511.462.733.177.127-.165.411-.582.535-.888.158-.4 1.615-.354.598-.962-.67-.4-3.59-1.204-5.547-1.204-.423 0-.72.471-1.042.74-.64.528-2.272 1.57-3.182 1.254-.93-.321-2.92 1.185-3.237 1.197-.12.004.002-1.14.638-1.224-.275.041 2.234-1.268 2.167-1.544-.082-.323-5.015 1.477-4.795 1.839.105.165.535.165-.029.529-.332.187-.676 1.429-.979 1.429-.905.395-.963-.78-1.968.735l-1.603.646c-2.38 2.533-4.066 5.734-4.623 9.305-.786 5.056.688 9.112 2.083 11.817L3.313 33zm24.623-21.405c-.009-.22-.31-.426-.62-.046-.218.26-.18.66-.298.834-.169.262.918.508.918.26.04-.416 1.186-.094 1.41-.038.402.104 1.042-.338.342-.572-.577-.194-.88-.402-.933-.782 0 0 .306-.264.172-.25-.352.04-.991 1.18-.991.594zM28 50H14v2h14v-2zM19.013 9.838c.144.204 1.236-.292 1.062-.264.336-.168.044-.186-.144-.286-.064-.322-.12-.82-.32-1.02l.132-.152c-.312-.448-.542.542-.542.542l.162-.046-.076.204c.128.232.032.372.01.498l-.224.138c-.08.1.386.114.392.128.02.052-.558.134-.452.258zM14 55v2h14v-2H14zM2 39.91h11.875V47h14.25v-7.09H40L21 21 2 39.91z" opacity=".595"/></svg>