<svg xmlns="http://www.w3.org/2000/svg" width="70" height="52" viewBox="0 0 70 52"><path fill="#4A4A4A" fill-rule="evenodd" d="M61.735 32.844c-1.74 1.127-3.758 3.636-3.32 6.94.781 5.872 5.033 13.188 1.808 12.11-3.68-1.232-21.091-20.711-23.36-24.198-5.377-8.26-2.958-19.348 5.402-24.765C50.625-2.486 61.762-.18 67.138 8.08c5.376 8.26 2.957 19.348-5.403 24.765zM26.194 31.58c-1.643 1.084-3.55 3.497-3.135 6.673.737 5.647 4.753 12.682 1.707 11.644-3.475-1.184-19.92-19.914-22.063-23.266C-2.375 18.688-.09 8.027 7.806 2.819c7.896-5.209 18.413-2.993 23.49 4.95 5.079 7.942 2.794 18.603-5.102 23.811z" opacity=".15"/></svg>