<svg xmlns="http://www.w3.org/2000/svg" width="50" height="50" viewBox="0 0 50 50"><path fill="#E9E9E9" d="M49.99 50h-4.157c0-6.467.248-7.396-3.668-8.304-5.994-1.383-11.655-2.69-13.717-7.204-.752-1.648-1.252-4.365.646-7.946 4.254-8.036 5.32-14.927 2.923-18.909-2.794-4.643-11.277-4.668-14.096.071-2.404 4.036-1.323 10.89 2.967 18.802 1.937 3.567 1.452 6.292.704 7.948-2.046 4.538-7.657 5.832-13.594 7.2-4.092.946-3.831 1.813-3.831 8.342H.01L0 47.415c0-5.25.415-8.282 6.62-9.715 7.011-1.619 13.934-3.069 10.605-9.204C7.365 10.31 14.412 0 25 0c10.381 0 17.606 9.93 7.775 28.496-3.231 6.1 3.438 7.55 10.604 9.204C49.585 39.133 50 42.165 50 47.415L49.99 50zM21.91 37.5l1.896 4.167h2.425l1.917-4.167H21.91zM28.15 50l-1.467-6.25H23.32L21.852 50h6.298z"/></svg>